HIERARCHY
ROOT joint_0
{
	OFFSET 0.000000 0.000000 0.000000
	CHANNELS 6 Xposition Yposition Zposition Zrotation Yrotation Xrotation 
	JOINT joint_1
	{
		OFFSET 14.113007 -2.961990 123.953979
		CHANNELS 3 Zrotation Yrotation Xrotation
		JOINT joint_2
		{
			OFFSET 0.764000 -2.434006 113.871948
			CHANNELS 3 Zrotation Yrotation Xrotation
			JOINT joint_3
			{
				OFFSET 0.186996 -2.169998 113.753052
				CHANNELS 3 Zrotation Yrotation Xrotation
				JOINT joint_4
				{
					OFFSET 16.096001 -2.720001 160.853027
					CHANNELS 3 Zrotation Yrotation Xrotation
					JOINT joint_5
					{
						OFFSET 34.392006 -0.188995 92.567017
						CHANNELS 3 Zrotation Yrotation Xrotation
						End Site
						{
							OFFSET 0.000000 0.000000 0.000000
						}
					}
				}
				JOINT joint_6
				{
					OFFSET 9.183998 -36.684006 89.597046
					CHANNELS 3 Zrotation Yrotation Xrotation
					JOINT joint_7
					{
						OFFSET 0.486000 -164.365997 -28.984009
						CHANNELS 3 Zrotation Yrotation Xrotation
						JOINT joint_8
						{
							OFFSET 38.899002 -34.967010 -291.651978
							CHANNELS 3 Zrotation Yrotation Xrotation
							JOINT joint_9
							{
								OFFSET 41.714005 -45.890991 -258.857056
								CHANNELS 3 Zrotation Yrotation Xrotation
								End Site
								{
									OFFSET 0.000000 0.000000 0.000000
								}
							}
						}
					}
				}
				JOINT joint_10
				{
					OFFSET 8.867004 33.650002 90.817993
					CHANNELS 3 Zrotation Yrotation Xrotation
					JOINT joint_11
					{
						OFFSET 0.018997 164.299999 -29.368042
						CHANNELS 3 Zrotation Yrotation Xrotation
						JOINT joint_12
						{
							OFFSET 29.440994 30.887997 -293.216919
							CHANNELS 3 Zrotation Yrotation Xrotation
							JOINT joint_13
							{
								OFFSET 46.174011 54.490005 -256.422058
								CHANNELS 3 Zrotation Yrotation Xrotation
								End Site
								{
									OFFSET 0.000000 0.000000 0.000000
								}
							}
						}
					}
				}
			}
		}
	}
	JOINT joint_14
	{
		OFFSET -2.264000 -89.466995 -116.150024
		CHANNELS 3 Zrotation Yrotation Xrotation
		JOINT joint_15
		{
			OFFSET -16.400993 -17.452988 -493.781982
			CHANNELS 3 Zrotation Yrotation Xrotation
			JOINT joint_16
			{
				OFFSET -50.497004 -13.404022 -424.754013
				CHANNELS 3 Zrotation Yrotation Xrotation
				JOINT joint_17
				{
					OFFSET 198.546007 -19.341003 -89.309000
					CHANNELS 3 Zrotation Yrotation Xrotation
					End Site
					{
						OFFSET 0.000000 0.000000 0.000000
					}
				}
			}
		}
	}
	JOINT joint_18
	{
		OFFSET -0.867996 96.016006 -110.817993
		CHANNELS 3 Zrotation Yrotation Xrotation
		JOINT joint_19
		{
			OFFSET -10.130997 24.658998 -493.645020
			CHANNELS 3 Zrotation Yrotation Xrotation
			JOINT joint_20
			{
				OFFSET -48.871004 19.434999 -424.714005
				CHANNELS 3 Zrotation Yrotation Xrotation
				JOINT joint_21
				{
					OFFSET 195.579996 24.926001 -94.327003
					CHANNELS 3 Zrotation Yrotation Xrotation
					End Site
					{
						OFFSET 0.000000 0.000000 0.000000
					}
				}
			}
		}
	}
}
MOTION
Frames: 13
Frame Time: 0.016667
190.694000 -200.875000 1113.100950 0.014413 2.705842 0.451824 0.049510 5.724225 3.886930 -0.356837 -0.890922 -0.763819 -0.336779 1.154130 0.612578 -0.179444 -0.106403 0.464676 0.000000 0.000000 0.000000 0.826854 -2.218454 1.572332 0.164568 -2.107307 -2.990656 1.001510 -4.212210 1.546456 0.000000 0.000000 0.000000 -4.030792 -2.552699 -0.793253 -0.737540 -1.961638 -0.523305 -0.921565 -2.602140 -2.191824 0.000000 0.000000 0.000000 3.899906 -24.122120 -2.883127 2.921607 30.316748 5.850893 6.660767 -5.920330 2.162512 0.000000 0.000000 0.000000 -2.292192 -13.458234 4.387081 0.339995 31.915134 -4.697655 -2.536576 -11.968471 0.417543 0.000000 0.000000 0.000000 
193.073000 -203.895000 1108.926030 0.612457 2.143933 0.735790 0.003026 6.156049 3.949791 -0.405153 -0.973904 -0.824124 -0.381696 1.270737 0.648402 -0.337000 -0.274371 0.871109 0.000000 0.000000 0.000000 0.453279 -2.236652 1.947813 0.115404 -2.180777 -2.996330 0.746481 -3.668748 0.543952 0.000000 0.000000 0.000000 -4.061559 -2.386800 -0.487990 -0.748525 -1.796890 -1.470492 -0.768139 -2.765236 -1.093126 0.000000 0.000000 0.000000 3.761225 -24.591314 -3.609407 2.688023 32.907569 6.775145 7.037968 -6.529014 2.227067 0.000000 0.000000 0.000000 -2.641206 -14.262436 4.411809 0.184721 34.881875 -4.898837 -2.862016 -12.318602 0.341319 0.000000 0.000000 0.000000 
195.621000 -206.649000 1105.625000 1.008342 1.597499 0.865953 -0.041765 6.491821 4.156772 -0.439628 -1.050559 -0.905542 -0.412997 1.346304 0.705185 -0.457138 -0.414215 1.180467 0.000000 0.000000 0.000000 0.246775 -2.202593 2.159884 0.067739 -2.173282 -2.866508 0.485939 -3.036370 -0.384524 0.000000 0.000000 0.000000 -3.963854 -2.122621 -0.253288 -0.751124 -1.554163 -2.343099 -0.648454 -2.809392 -0.345760 0.000000 0.000000 0.000000 3.681032 -24.785464 -4.019917 2.503744 34.888644 7.430925 7.333920 -6.976650 2.279407 0.000000 0.000000 0.000000 -2.893499 -14.782818 4.548757 0.062607 37.295166 -5.051750 -3.119646 -12.477275 0.272288 0.000000 0.000000 0.000000 
198.505000 -209.093990 1103.240970 1.010676 1.128216 0.694091 -0.078972 6.588280 4.672983 -0.437088 -1.057647 -1.024809 -0.406898 1.340426 0.807068 -0.504448 -0.420697 1.303380 0.000000 0.000000 0.000000 0.389680 -2.083121 2.080705 0.029251 -2.021815 -2.470155 0.219129 -2.259166 -1.180439 0.000000 0.000000 0.000000 -3.595371 -1.705507 -0.196818 -0.737906 -1.202618 -3.125851 -0.555964 -2.518771 -0.143917 0.000000 0.000000 0.000000 3.696384 -24.665846 -3.781610 2.381063 36.031393 7.648662 7.439775 -7.316753 2.274581 0.000000 0.000000 0.000000 -2.961474 -14.949030 4.975983 0.039411 39.021619 -5.169036 -3.266189 -12.614470 0.245514 0.000000 0.000000 0.000000 
201.558000 -211.272990 1101.729980 0.805376 0.721261 0.384712 -0.120198 6.502994 5.315313 -0.417780 -1.003000 -1.154665 -0.383915 1.283258 0.922562 -0.515117 -0.395619 1.332889 0.000000 0.000000 0.000000 0.699616 -1.908806 1.835981 -0.005315 -1.787253 -1.929132 -0.054773 -1.388552 -1.907355 0.000000 0.000000 0.000000 -3.098662 -1.188803 -0.199372 -0.719910 -0.772647 -3.842867 -0.493305 -2.085518 -0.281707 0.000000 0.000000 0.000000 3.771349 -24.357699 -3.228940 2.307576 36.634372 7.627448 7.438199 -7.628813 2.235660 0.000000 0.000000 0.000000 -2.931025 -14.899538 5.526761 0.065321 40.265536 -5.258866 -3.355457 -12.680157 0.230120 0.000000 0.000000 0.000000 
204.586000 -213.335010 1100.968990 0.647137 0.304730 0.171642 -0.151925 6.327857 5.789493 -0.396880 -0.943310 -1.234924 -0.361109 1.221242 0.993374 -0.516300 -0.357540 1.338393 0.000000 0.000000 0.000000 0.906516 -1.703931 1.666705 -0.061273 -1.536695 -1.594266 -0.289063 -0.551008 -2.419336 0.000000 0.000000 0.000000 -2.723128 -0.737388 -0.228177 -0.697851 -0.384385 -4.246044 -0.474593 -1.736742 -0.578490 0.000000 0.000000 0.000000 3.833025 -23.937859 -2.775861 2.260403 37.039227 7.571392 7.435562 -7.859988 2.206997 0.000000 0.000000 0.000000 -2.914404 -14.627728 5.928566 0.062683 41.041544 -5.304261 -3.445456 -12.623307 0.194208 0.000000 0.000000 0.000000 
207.602010 -215.425990 1101.005000 0.617767 -0.149254 0.159377 -0.150292 6.039860 5.939175 -0.363420 -0.885928 -1.223151 -0.328701 1.160560 0.985683 -0.511888 -0.298845 1.330127 0.000000 0.000000 0.000000 0.870138 -1.459171 1.681534 -0.155733 -1.283187 -1.626513 -0.467570 0.261722 -2.608087 0.000000 0.000000 0.000000 -2.592924 -0.421543 -0.278085 -0.671014 -0.086075 -4.152633 -0.521713 -1.564357 -1.047121 0.000000 0.000000 0.000000 3.857502 -23.434868 -2.574197 2.239523 37.385176 7.523156 7.481182 -7.980998 2.210002 0.000000 0.000000 0.000000 -2.947140 -14.077177 6.051012 0.008676 41.264215 -5.288382 -3.542885 -12.424502 0.131111 0.000000 0.000000 0.000000 
210.593990 -217.399000 1101.790040 0.630172 -0.607109 0.244827 -0.134901 5.645419 5.908264 -0.324230 -0.808859 -1.155649 -0.292250 1.083706 0.935520 -0.497172 -0.225517 1.295580 0.000000 0.000000 0.000000 0.720880 -1.180960 1.750596 -0.267833 -1.013742 -1.843579 -0.606380 1.043104 -2.583181 0.000000 0.000000 0.000000 -2.583094 -0.172993 -0.337273 -0.642924 0.166887 -3.775830 -0.612699 -1.474493 -1.673213 0.000000 0.000000 0.000000 3.872024 -22.825924 -2.476984 2.244533 37.536794 7.440914 7.527247 -8.027291 2.223418 0.000000 0.000000 0.000000 -2.992068 -13.315754 6.019060 -0.071201 41.033586 -5.233103 -3.638344 -12.132285 0.051486 0.000000 0.000000 0.000000 
213.330990 -218.955990 1103.057980 0.686493 -1.046883 0.343644 -0.153711 5.280355 5.865406 -0.317991 -0.738893 -1.109547 -0.288079 1.010425 0.900085 -0.485411 -0.174081 1.268016 0.000000 0.000000 0.000000 0.583243 -0.916832 1.754905 -0.366629 -0.758664 -2.081022 -0.706447 1.640082 -2.527807 0.000000 0.000000 0.000000 -2.577555 0.050990 -0.358960 -0.623589 0.394108 -3.474596 -0.698550 -1.422174 -2.229925 0.000000 0.000000 0.000000 3.883463 -22.105557 -2.446259 2.247547 37.415342 7.400972 7.532455 -8.030702 2.227814 0.000000 0.000000 0.000000 -3.053613 -12.521784 5.944285 -0.184406 40.637600 -5.176588 -3.764932 -11.789435 -0.050080 0.000000 0.000000 0.000000 
215.662990 -219.914990 1104.813960 0.822365 -1.460995 0.441755 -0.235009 5.003671 5.869043 -0.371363 -0.695215 -1.123638 -0.342052 0.953049 0.906519 -0.485865 -0.163143 1.271195 0.000000 0.000000 0.000000 0.501876 -0.687321 1.647655 -0.443361 -0.531670 -2.311984 -0.759750 1.973073 -2.484234 0.000000 0.000000 0.000000 -2.535952 0.261299 -0.325158 -0.622385 0.597388 -3.381994 -0.771266 -1.423039 -2.649759 0.000000 0.000000 0.000000 3.887472 -21.251704 -2.514966 2.233671 36.954708 7.465226 7.479861 -7.994309 2.216492 0.000000 0.000000 0.000000 -3.155105 -11.767434 5.834752 -0.354290 40.170951 -5.111993 -3.957366 -11.392002 -0.187874 0.000000 0.000000 0.000000 
217.739000 -220.457990 1107.052000 1.007279 -1.860814 0.551981 -0.350942 4.764297 5.861478 -0.461154 -0.669750 -1.162484 -0.431850 0.907686 0.929545 -0.489457 -0.171553 1.282017 0.000000 0.000000 0.000000 0.439822 -0.475086 1.479883 -0.508645 -0.320115 -2.569798 -0.773717 2.122678 -2.406348 0.000000 0.000000 0.000000 -2.498460 0.447087 -0.265889 -0.629227 0.775172 -3.355235 -0.840266 -1.464986 -3.001169 0.000000 0.000000 0.000000 3.884821 -20.279823 -2.646630 2.216110 36.213766 7.569306 7.382599 -7.908698 2.195004 0.000000 0.000000 0.000000 -3.278328 -10.977510 5.683336 -0.560722 39.538056 -5.045066 -4.179841 -10.943061 -0.347179 0.000000 0.000000 0.000000 
219.776000 -220.832990 1109.488040 1.147099 -2.250877 0.631214 -0.463675 4.525577 5.844279 -0.550046 -0.640932 -1.194258 -0.520785 0.866210 0.946894 -0.483408 -0.161644 1.267459 0.000000 0.000000 0.000000 0.386442 -0.270036 1.282746 -0.561308 -0.115854 -2.782519 -0.773014 2.179790 -2.343991 0.000000 0.000000 0.000000 -2.479502 0.618461 -0.205115 -0.625931 0.943674 -3.341068 -0.882428 -1.459737 -3.257121 0.000000 0.000000 0.000000 3.889046 -19.243927 -2.700127 2.211529 35.303030 7.598775 7.246823 -7.784789 2.163514 0.000000 0.000000 0.000000 -3.365598 -10.110821 5.580076 -0.741593 38.742608 -5.034614 -4.358377 -10.494737 -0.489502 0.000000 0.000000 0.000000 
221.955990 -221.093000 1112.145020 1.191748 -2.645484 0.654628 -0.565050 4.294113 5.835067 -0.630747 -0.609419 -1.212537 -0.601626 0.831199 0.952849 -0.458507 -0.107188 1.203495 0.000000 0.000000 0.000000 0.365528 -0.060853 1.046220 -0.597031 0.096045 -2.899347 -0.760822 2.142188 -2.318912 0.000000 0.000000 0.000000 -2.494050 0.797847 -0.149740 -0.601706 1.129991 -3.335809 -0.883330 -1.339350 -3.417053 0.000000 0.000000 0.000000 3.910058 -18.113343 -2.602709 2.232554 34.196630 7.494725 7.065557 -7.606901 2.121055 0.000000 0.000000 0.000000 -3.383666 -9.100401 5.572644 -0.868520 37.723679 -5.117392 -4.457879 -10.041427 -0.600862 0.000000 0.000000 0.000000 
